<mxfile host="Electron" agent="Mozilla/5.0 (Windows NT 10.0; Win64; x64) AppleWebKit/537.36 (KHTML, like Gecko) draw.io/26.2.15 Chrome/134.0.6998.205 Electron/35.2.1 Safari/537.36" version="26.2.15">
  <diagram name="Page-1" id="xRfz-6UvRlw8iDULHB4P">
    <mxGraphModel dx="2279" dy="1022" grid="1" gridSize="10" guides="1" tooltips="1" connect="1" arrows="1" fold="1" page="1" pageScale="1" pageWidth="850" pageHeight="1100" math="0" shadow="0">
      <root>
        <mxCell id="0" />
        <mxCell id="1" parent="0" />
        <mxCell id="XdePbFOdz1kA0PpPe4pF-14" style="edgeStyle=orthogonalEdgeStyle;rounded=0;orthogonalLoop=1;jettySize=auto;html=1;entryX=0;entryY=0.25;entryDx=0;entryDy=0;" parent="1" source="XdePbFOdz1kA0PpPe4pF-1" target="XdePbFOdz1kA0PpPe4pF-7" edge="1">
          <mxGeometry relative="1" as="geometry" />
        </mxCell>
        <mxCell id="XdePbFOdz1kA0PpPe4pF-1" value="1" style="triangle;whiteSpace=wrap;html=1;" parent="1" vertex="1">
          <mxGeometry x="38" y="80" width="30" height="40" as="geometry" />
        </mxCell>
        <mxCell id="XdePbFOdz1kA0PpPe4pF-11" style="edgeStyle=orthogonalEdgeStyle;rounded=0;orthogonalLoop=1;jettySize=auto;html=1;entryX=0;entryY=0.75;entryDx=0;entryDy=0;" parent="1" source="XdePbFOdz1kA0PpPe4pF-2" target="XdePbFOdz1kA0PpPe4pF-7" edge="1">
          <mxGeometry relative="1" as="geometry" />
        </mxCell>
        <mxCell id="XdePbFOdz1kA0PpPe4pF-2" value="1" style="triangle;whiteSpace=wrap;html=1;" parent="1" vertex="1">
          <mxGeometry x="38" y="160" width="30" height="40" as="geometry" />
        </mxCell>
        <mxCell id="XdePbFOdz1kA0PpPe4pF-12" style="edgeStyle=orthogonalEdgeStyle;rounded=0;orthogonalLoop=1;jettySize=auto;html=1;entryX=0;entryY=0.75;entryDx=0;entryDy=0;" parent="1" source="XdePbFOdz1kA0PpPe4pF-3" target="XdePbFOdz1kA0PpPe4pF-8" edge="1">
          <mxGeometry relative="1" as="geometry" />
        </mxCell>
        <mxCell id="XdePbFOdz1kA0PpPe4pF-3" value="1" style="triangle;whiteSpace=wrap;html=1;" parent="1" vertex="1">
          <mxGeometry x="38" y="240" width="30" height="40" as="geometry" />
        </mxCell>
        <mxCell id="XdePbFOdz1kA0PpPe4pF-16" style="edgeStyle=orthogonalEdgeStyle;rounded=0;orthogonalLoop=1;jettySize=auto;html=1;entryX=0;entryY=0.75;entryDx=0;entryDy=0;" parent="1" source="XdePbFOdz1kA0PpPe4pF-4" target="XdePbFOdz1kA0PpPe4pF-15" edge="1">
          <mxGeometry relative="1" as="geometry" />
        </mxCell>
        <mxCell id="XdePbFOdz1kA0PpPe4pF-4" value="1" style="triangle;whiteSpace=wrap;html=1;" parent="1" vertex="1">
          <mxGeometry x="38" y="320" width="30" height="40" as="geometry" />
        </mxCell>
        <mxCell id="XdePbFOdz1kA0PpPe4pF-19" style="edgeStyle=orthogonalEdgeStyle;rounded=0;orthogonalLoop=1;jettySize=auto;html=1;entryX=0;entryY=0.75;entryDx=0;entryDy=0;" parent="1" source="XdePbFOdz1kA0PpPe4pF-5" target="XdePbFOdz1kA0PpPe4pF-18" edge="1">
          <mxGeometry relative="1" as="geometry" />
        </mxCell>
        <mxCell id="XdePbFOdz1kA0PpPe4pF-5" value="1" style="triangle;whiteSpace=wrap;html=1;" parent="1" vertex="1">
          <mxGeometry x="38" y="400" width="30" height="40" as="geometry" />
        </mxCell>
        <mxCell id="XdePbFOdz1kA0PpPe4pF-23" style="edgeStyle=orthogonalEdgeStyle;rounded=0;orthogonalLoop=1;jettySize=auto;html=1;entryX=0;entryY=0.75;entryDx=0;entryDy=0;" parent="1" target="XdePbFOdz1kA0PpPe4pF-22" edge="1">
          <mxGeometry relative="1" as="geometry">
            <mxPoint x="68" y="500" as="sourcePoint" />
          </mxGeometry>
        </mxCell>
        <mxCell id="XdePbFOdz1kA0PpPe4pF-6" value="1" style="triangle;whiteSpace=wrap;html=1;" parent="1" vertex="1">
          <mxGeometry x="39" y="480" width="30" height="40" as="geometry" />
        </mxCell>
        <mxCell id="XdePbFOdz1kA0PpPe4pF-13" style="edgeStyle=orthogonalEdgeStyle;rounded=0;orthogonalLoop=1;jettySize=auto;html=1;entryX=0;entryY=0.25;entryDx=0;entryDy=0;" parent="1" source="XdePbFOdz1kA0PpPe4pF-7" target="XdePbFOdz1kA0PpPe4pF-8" edge="1">
          <mxGeometry relative="1" as="geometry" />
        </mxCell>
        <mxCell id="XdePbFOdz1kA0PpPe4pF-7" value="2" style="triangle;whiteSpace=wrap;html=1;" parent="1" vertex="1">
          <mxGeometry x="118" y="120" width="30" height="40" as="geometry" />
        </mxCell>
        <mxCell id="XdePbFOdz1kA0PpPe4pF-17" style="edgeStyle=orthogonalEdgeStyle;rounded=0;orthogonalLoop=1;jettySize=auto;html=1;entryX=0;entryY=0.25;entryDx=0;entryDy=0;" parent="1" source="XdePbFOdz1kA0PpPe4pF-8" target="XdePbFOdz1kA0PpPe4pF-15" edge="1">
          <mxGeometry relative="1" as="geometry" />
        </mxCell>
        <mxCell id="XdePbFOdz1kA0PpPe4pF-8" value="3" style="triangle;whiteSpace=wrap;html=1;" parent="1" vertex="1">
          <mxGeometry x="198" y="200" width="30" height="40" as="geometry" />
        </mxCell>
        <mxCell id="XdePbFOdz1kA0PpPe4pF-20" style="edgeStyle=orthogonalEdgeStyle;rounded=0;orthogonalLoop=1;jettySize=auto;html=1;entryX=0;entryY=0.25;entryDx=0;entryDy=0;" parent="1" source="XdePbFOdz1kA0PpPe4pF-15" target="XdePbFOdz1kA0PpPe4pF-18" edge="1">
          <mxGeometry relative="1" as="geometry" />
        </mxCell>
        <mxCell id="XdePbFOdz1kA0PpPe4pF-15" value="4" style="triangle;whiteSpace=wrap;html=1;fontSize=15;" parent="1" vertex="1">
          <mxGeometry x="278" y="280" width="30" height="40" as="geometry" />
        </mxCell>
        <mxCell id="XdePbFOdz1kA0PpPe4pF-24" style="edgeStyle=orthogonalEdgeStyle;rounded=0;orthogonalLoop=1;jettySize=auto;html=1;entryX=0;entryY=0.25;entryDx=0;entryDy=0;" parent="1" source="XdePbFOdz1kA0PpPe4pF-18" target="XdePbFOdz1kA0PpPe4pF-22" edge="1">
          <mxGeometry relative="1" as="geometry" />
        </mxCell>
        <mxCell id="XdePbFOdz1kA0PpPe4pF-18" value="5" style="triangle;whiteSpace=wrap;html=1;" parent="1" vertex="1">
          <mxGeometry x="358" y="360" width="30" height="40" as="geometry" />
        </mxCell>
        <mxCell id="XdePbFOdz1kA0PpPe4pF-22" value="6" style="triangle;whiteSpace=wrap;html=1;" parent="1" vertex="1">
          <mxGeometry x="438" y="440" width="30" height="40" as="geometry" />
        </mxCell>
        <mxCell id="XdePbFOdz1kA0PpPe4pF-25" value="&lt;font style=&quot;font-size: 25px;&quot;&gt;Positive Integers&lt;/font&gt;" style="whiteSpace=wrap;html=1;" parent="1" vertex="1">
          <mxGeometry x="318" y="180" width="120" height="60" as="geometry" />
        </mxCell>
        <mxCell id="XdePbFOdz1kA0PpPe4pF-33" style="edgeStyle=orthogonalEdgeStyle;rounded=0;orthogonalLoop=1;jettySize=auto;html=1;entryX=1;entryY=0.5;entryDx=0;entryDy=0;" parent="1" source="XdePbFOdz1kA0PpPe4pF-26" target="XdePbFOdz1kA0PpPe4pF-30" edge="1">
          <mxGeometry relative="1" as="geometry" />
        </mxCell>
        <mxCell id="XdePbFOdz1kA0PpPe4pF-34" style="edgeStyle=orthogonalEdgeStyle;rounded=0;orthogonalLoop=1;jettySize=auto;html=1;entryX=1;entryY=0.5;entryDx=0;entryDy=0;" parent="1" source="XdePbFOdz1kA0PpPe4pF-26" target="XdePbFOdz1kA0PpPe4pF-29" edge="1">
          <mxGeometry relative="1" as="geometry" />
        </mxCell>
        <mxCell id="XdePbFOdz1kA0PpPe4pF-26" value="1" style="triangle;whiteSpace=wrap;html=1;" parent="1" vertex="1">
          <mxGeometry x="39" y="600" width="30" height="40" as="geometry" />
        </mxCell>
        <mxCell id="XdePbFOdz1kA0PpPe4pF-29" value="0" style="triangle;whiteSpace=wrap;html=1;direction=west;" parent="1" vertex="1">
          <mxGeometry x="129" y="640" width="30" height="40" as="geometry" />
        </mxCell>
        <mxCell id="XdePbFOdz1kA0PpPe4pF-30" value="1" style="triangle;whiteSpace=wrap;html=1;direction=west;" parent="1" vertex="1">
          <mxGeometry x="129" y="560" width="30" height="40" as="geometry" />
        </mxCell>
        <mxCell id="XdePbFOdz1kA0PpPe4pF-35" style="edgeStyle=orthogonalEdgeStyle;rounded=0;orthogonalLoop=1;jettySize=auto;html=1;entryX=0;entryY=0.75;entryDx=0;entryDy=0;" parent="1" source="XdePbFOdz1kA0PpPe4pF-31" target="XdePbFOdz1kA0PpPe4pF-29" edge="1">
          <mxGeometry relative="1" as="geometry" />
        </mxCell>
        <mxCell id="XdePbFOdz1kA0PpPe4pF-31" value="1" style="triangle;whiteSpace=wrap;html=1;direction=west;" parent="1" vertex="1">
          <mxGeometry x="209" y="600" width="30" height="40" as="geometry" />
        </mxCell>
        <mxCell id="XdePbFOdz1kA0PpPe4pF-36" style="edgeStyle=orthogonalEdgeStyle;rounded=0;orthogonalLoop=1;jettySize=auto;html=1;entryX=0;entryY=0.25;entryDx=0;entryDy=0;" parent="1" source="XdePbFOdz1kA0PpPe4pF-32" target="XdePbFOdz1kA0PpPe4pF-29" edge="1">
          <mxGeometry relative="1" as="geometry" />
        </mxCell>
        <mxCell id="XdePbFOdz1kA0PpPe4pF-32" value="- 1" style="triangle;whiteSpace=wrap;html=1;direction=west;" parent="1" vertex="1">
          <mxGeometry x="209" y="680" width="30" height="40" as="geometry" />
        </mxCell>
        <mxCell id="XdePbFOdz1kA0PpPe4pF-40" style="edgeStyle=orthogonalEdgeStyle;rounded=0;orthogonalLoop=1;jettySize=auto;html=1;entryX=0;entryY=0.75;entryDx=0;entryDy=0;" parent="1" source="XdePbFOdz1kA0PpPe4pF-37" target="XdePbFOdz1kA0PpPe4pF-32" edge="1">
          <mxGeometry relative="1" as="geometry" />
        </mxCell>
        <mxCell id="XdePbFOdz1kA0PpPe4pF-37" value="1" style="triangle;whiteSpace=wrap;html=1;direction=west;" parent="1" vertex="1">
          <mxGeometry x="289" y="640" width="30" height="40" as="geometry" />
        </mxCell>
        <mxCell id="XdePbFOdz1kA0PpPe4pF-39" style="edgeStyle=orthogonalEdgeStyle;rounded=0;orthogonalLoop=1;jettySize=auto;html=1;entryX=0;entryY=0.25;entryDx=0;entryDy=0;" parent="1" source="XdePbFOdz1kA0PpPe4pF-38" target="XdePbFOdz1kA0PpPe4pF-32" edge="1">
          <mxGeometry relative="1" as="geometry" />
        </mxCell>
        <mxCell id="XdePbFOdz1kA0PpPe4pF-38" value="- 2" style="triangle;whiteSpace=wrap;html=1;direction=west;" parent="1" vertex="1">
          <mxGeometry x="289" y="720" width="30" height="40" as="geometry" />
        </mxCell>
        <mxCell id="XdePbFOdz1kA0PpPe4pF-45" style="edgeStyle=orthogonalEdgeStyle;rounded=0;orthogonalLoop=1;jettySize=auto;html=1;entryX=0;entryY=0.75;entryDx=0;entryDy=0;" parent="1" source="XdePbFOdz1kA0PpPe4pF-41" target="XdePbFOdz1kA0PpPe4pF-38" edge="1">
          <mxGeometry relative="1" as="geometry" />
        </mxCell>
        <mxCell id="XdePbFOdz1kA0PpPe4pF-41" value="1" style="triangle;whiteSpace=wrap;html=1;direction=west;" parent="1" vertex="1">
          <mxGeometry x="369" y="680" width="30" height="40" as="geometry" />
        </mxCell>
        <mxCell id="XdePbFOdz1kA0PpPe4pF-46" style="edgeStyle=orthogonalEdgeStyle;rounded=0;orthogonalLoop=1;jettySize=auto;html=1;entryX=0;entryY=0.25;entryDx=0;entryDy=0;" parent="1" source="XdePbFOdz1kA0PpPe4pF-42" target="XdePbFOdz1kA0PpPe4pF-38" edge="1">
          <mxGeometry relative="1" as="geometry" />
        </mxCell>
        <mxCell id="XdePbFOdz1kA0PpPe4pF-42" value="- 3" style="triangle;whiteSpace=wrap;html=1;direction=west;" parent="1" vertex="1">
          <mxGeometry x="369" y="760" width="30" height="40" as="geometry" />
        </mxCell>
        <mxCell id="XdePbFOdz1kA0PpPe4pF-47" style="edgeStyle=orthogonalEdgeStyle;rounded=0;orthogonalLoop=1;jettySize=auto;html=1;entryX=0;entryY=0.75;entryDx=0;entryDy=0;" parent="1" source="XdePbFOdz1kA0PpPe4pF-43" target="XdePbFOdz1kA0PpPe4pF-42" edge="1">
          <mxGeometry relative="1" as="geometry" />
        </mxCell>
        <mxCell id="XdePbFOdz1kA0PpPe4pF-43" value="1" style="triangle;whiteSpace=wrap;html=1;direction=west;" parent="1" vertex="1">
          <mxGeometry x="449" y="720" width="30" height="40" as="geometry" />
        </mxCell>
        <mxCell id="XdePbFOdz1kA0PpPe4pF-48" style="edgeStyle=orthogonalEdgeStyle;rounded=0;orthogonalLoop=1;jettySize=auto;html=1;entryX=0;entryY=0.25;entryDx=0;entryDy=0;" parent="1" source="XdePbFOdz1kA0PpPe4pF-44" target="XdePbFOdz1kA0PpPe4pF-42" edge="1">
          <mxGeometry relative="1" as="geometry" />
        </mxCell>
        <mxCell id="XdePbFOdz1kA0PpPe4pF-44" value="- 4" style="triangle;whiteSpace=wrap;html=1;direction=west;" parent="1" vertex="1">
          <mxGeometry x="449" y="800" width="30" height="40" as="geometry" />
        </mxCell>
        <mxCell id="XdePbFOdz1kA0PpPe4pF-49" value="&lt;font style=&quot;font-size: 24px;&quot;&gt;Negative Integers&lt;/font&gt;" style="whiteSpace=wrap;html=1;" parent="1" vertex="1">
          <mxGeometry x="359" y="580" width="120" height="60" as="geometry" />
        </mxCell>
        <mxCell id="P9Q4JkVkHAm-3udSk-I6-1" value="&lt;font style=&quot;font-size: 24px;&quot;&gt;(1,1) --&amp;gt; 2,&lt;span style=&quot;white-space: pre;&quot;&gt;&#x9;&lt;/span&gt;&quot;1+1=2&quot;&lt;/font&gt;&lt;div&gt;&lt;font style=&quot;font-size: 24px;&quot;&gt;(1,2) --&amp;gt; 3,&lt;span style=&quot;white-space: pre;&quot;&gt;&#x9;&lt;/span&gt;&quot;1+2=3&quot;&lt;/font&gt;&lt;/div&gt;&lt;div&gt;&lt;font style=&quot;font-size: 24px;&quot;&gt;(1,3) --&amp;gt; 4,&lt;span style=&quot;white-space: pre;&quot;&gt;&#x9;&lt;/span&gt;&quot;1+3=4&quot;&lt;/font&gt;&lt;/div&gt;&lt;div&gt;&lt;font style=&quot;font-size: 24px;&quot;&gt;...&lt;span style=&quot;white-space: pre;&quot;&gt;&#x9;&lt;/span&gt;&lt;span style=&quot;white-space: pre;&quot;&gt;&#x9;&lt;/span&gt;&lt;span style=&quot;white-space: pre;&quot;&gt;&#x9;&lt;/span&gt;...&lt;/font&gt;&lt;/div&gt;&lt;div&gt;&lt;font style=&quot;font-size: 24px;&quot;&gt;(1,n) --&amp;gt; (n+1),&quot;1+n=(n+1)&quot;&lt;/font&gt;&lt;/div&gt;&lt;div&gt;&lt;font style=&quot;font-size: 24px;&quot;&gt;&lt;br&gt;&lt;/font&gt;&lt;/div&gt;&lt;div&gt;&lt;font style=&quot;font-size: 24px;&quot;&gt;(n) is an integer&lt;/font&gt;&lt;/div&gt;&lt;div&gt;&lt;font style=&quot;font-size: 24px;&quot;&gt;&lt;br&gt;&lt;/font&gt;&lt;/div&gt;&lt;div&gt;&lt;font style=&quot;font-size: 24px;&quot;&gt;Positive Integer Function (PIF)&lt;/font&gt;&lt;/div&gt;&lt;div&gt;&lt;font style=&quot;font-size: 24px;&quot;&gt;(1 --&amp;gt; n)(args = 1) --&amp;gt; (n+1)&lt;/font&gt;&lt;/div&gt;&lt;div&gt;&lt;br&gt;&lt;/div&gt;" style="text;html=1;align=center;verticalAlign=middle;whiteSpace=wrap;rounded=0;labelBorderColor=default;" vertex="1" parent="1">
          <mxGeometry x="520" y="120" width="320" height="270" as="geometry" />
        </mxCell>
        <mxCell id="P9Q4JkVkHAm-3udSk-I6-3" value="&lt;div&gt;&lt;font style=&quot;font-size: 24px;&quot;&gt;1 --&amp;gt; (1,2),&lt;span style=&quot;white-space: pre;&quot;&gt;&#x9;&lt;/span&gt;&quot;1-1=0&quot;&lt;/font&gt;&lt;/div&gt;&lt;div&gt;&lt;font style=&quot;font-size: 24px;&quot;&gt;2 --&amp;gt; (1,3),&lt;span style=&quot;white-space: pre;&quot;&gt;&#x9;&lt;/span&gt;&quot;0-1=-1&quot;&lt;/font&gt;&lt;/div&gt;&lt;div&gt;&lt;font style=&quot;font-size: 24px;&quot;&gt;3 --&amp;gt; (1,4),&lt;span style=&quot;white-space: pre;&quot;&gt;&#x9;&lt;/span&gt;&quot;-1-1=-2&quot;&lt;/font&gt;&lt;/div&gt;&lt;div&gt;&lt;font style=&quot;font-size: 24px;&quot;&gt;...&lt;span style=&quot;white-space: pre;&quot;&gt;&#x9;&lt;/span&gt;&lt;span style=&quot;white-space: pre;&quot;&gt;&#x9;&lt;span style=&quot;white-space: pre;&quot;&gt;&#x9;&lt;/span&gt;&lt;/span&gt;...&lt;/font&gt;&lt;/div&gt;&lt;div&gt;&lt;font style=&quot;font-size: 24px;&quot;&gt;n --&amp;gt; (1,(n+1)),&lt;span style=&quot;white-space: pre;&quot;&gt;&#x9;&lt;/span&gt;&quot;n-1=(n-1)&quot;&lt;/font&gt;&lt;/div&gt;&lt;div&gt;&lt;font style=&quot;font-size: 24px;&quot;&gt;&lt;br&gt;&lt;/font&gt;&lt;/div&gt;&lt;div&gt;&lt;font style=&quot;font-size: 24px;&quot;&gt;(n) is an integer&lt;/font&gt;&lt;/div&gt;&lt;div&gt;&lt;font style=&quot;font-size: 24px;&quot;&gt;&lt;br&gt;&lt;/font&gt;&lt;/div&gt;&lt;div&gt;&lt;font style=&quot;font-size: 24px;&quot;&gt;Negative Integer Function&lt;/font&gt;&lt;/div&gt;&lt;div&gt;&lt;span style=&quot;font-size: 24px; background-color: transparent; color: light-dark(rgb(0, 0, 0), rgb(255, 255, 255));&quot;&gt;(NIF)&lt;/span&gt;&lt;/div&gt;&lt;div&gt;&lt;font style=&quot;font-size: 24px;&quot;&gt;(k --&amp;gt; n)(args = k) --&amp;gt; (n+&lt;/font&gt;&lt;span style=&quot;font-size: 24px; background-color: transparent; color: light-dark(rgb(0, 0, 0), rgb(255, 255, 255));&quot;&gt;1)&lt;/span&gt;&lt;/div&gt;&lt;div&gt;&lt;span style=&quot;font-size: 24px; background-color: transparent; color: light-dark(rgb(0, 0, 0), rgb(255, 255, 255));&quot;&gt;k = 3&lt;/span&gt;&lt;/div&gt;&lt;div&gt;&lt;br&gt;&lt;/div&gt;" style="text;html=1;align=center;verticalAlign=middle;whiteSpace=wrap;rounded=0;labelBorderColor=default;" vertex="1" parent="1">
          <mxGeometry x="540" y="560" width="300" height="240" as="geometry" />
        </mxCell>
        <mxCell id="P9Q4JkVkHAm-3udSk-I6-5" value="&lt;font style=&quot;font-size: 14px;&quot;&gt;Positive Integers (Z+)&lt;/font&gt;" style="triangle;whiteSpace=wrap;html=1;" vertex="1" parent="1">
          <mxGeometry x="1040" y="40" width="90" height="120" as="geometry" />
        </mxCell>
        <mxCell id="P9Q4JkVkHAm-3udSk-I6-7" style="edgeStyle=orthogonalEdgeStyle;rounded=0;orthogonalLoop=1;jettySize=auto;html=1;" edge="1" parent="1" source="P9Q4JkVkHAm-3udSk-I6-6" target="P9Q4JkVkHAm-3udSk-I6-5">
          <mxGeometry relative="1" as="geometry" />
        </mxCell>
        <mxCell id="P9Q4JkVkHAm-3udSk-I6-6" value="&lt;font style=&quot;font-size: 14px;&quot;&gt;Positive Integers (Z+)&lt;/font&gt;" style="triangle;whiteSpace=wrap;html=1;" vertex="1" parent="1">
          <mxGeometry x="880" y="40" width="90" height="120" as="geometry" />
        </mxCell>
        <mxCell id="P9Q4JkVkHAm-3udSk-I6-8" value="&lt;font style=&quot;font-size: 24px;&quot;&gt;Positive Real Numbers (R+)&lt;/font&gt;" style="text;html=1;align=center;verticalAlign=middle;whiteSpace=wrap;rounded=0;labelBorderColor=default;" vertex="1" parent="1">
          <mxGeometry x="880" y="180" width="240" height="80" as="geometry" />
        </mxCell>
        <mxCell id="P9Q4JkVkHAm-3udSk-I6-10" value="&lt;font style=&quot;font-size: 36px;&quot;&gt;...&lt;/font&gt;" style="text;html=1;align=center;verticalAlign=middle;whiteSpace=wrap;rounded=0;" vertex="1" parent="1">
          <mxGeometry x="460" y="485" width="60" height="30" as="geometry" />
        </mxCell>
        <mxCell id="P9Q4JkVkHAm-3udSk-I6-11" value="&lt;font style=&quot;font-size: 36px;&quot;&gt;...&lt;/font&gt;" style="text;html=1;align=center;verticalAlign=middle;whiteSpace=wrap;rounded=0;" vertex="1" parent="1">
          <mxGeometry x="470" y="760" width="60" height="30" as="geometry" />
        </mxCell>
        <mxCell id="P9Q4JkVkHAm-3udSk-I6-14" value="&lt;div&gt;&lt;font style=&quot;font-size: 24px;&quot;&gt;Positive Integer Function (Squared)&lt;/font&gt;&lt;div&gt;&lt;span style=&quot;font-size: 24px; background-color: transparent; color: light-dark(rgb(0, 0, 0), rgb(255, 255, 255));&quot;&gt;Positive Real&amp;nbsp; Number Function (PRNF)&lt;/span&gt;&lt;/div&gt;&lt;div&gt;&lt;font style=&quot;font-size: 24px;&quot;&gt;&lt;br&gt;&lt;/font&gt;&lt;/div&gt;&lt;div&gt;&lt;font style=&quot;font-size: 24px;&quot;&gt;(1 --&amp;gt; n)(args = (1 --&amp;gt; n)(args = 1))&lt;/font&gt;&lt;/div&gt;&lt;div&gt;&lt;font style=&quot;font-size: 24px;&quot;&gt;--&amp;gt;&amp;nbsp;&lt;/font&gt;&lt;span style=&quot;font-size: 24px; background-color: transparent; color: light-dark(rgb(0, 0, 0), rgb(255, 255, 255));&quot;&gt;(1 --&amp;gt; n)(1 --&amp;gt; n)(args = 1)&lt;/span&gt;&lt;/div&gt;&lt;div&gt;&lt;span style=&quot;background-color: transparent; color: light-dark(rgb(0, 0, 0), rgb(255, 255, 255)); font-size: 24px;&quot;&gt;--&amp;gt; (PRNF)(args = 1)&lt;/span&gt;&lt;/div&gt;&lt;/div&gt;&lt;div&gt;&lt;span style=&quot;font-size: 24px; background-color: transparent; color: light-dark(rgb(0, 0, 0), rgb(255, 255, 255));&quot;&gt;&lt;br&gt;&lt;/span&gt;&lt;/div&gt;" style="text;html=1;align=center;verticalAlign=middle;whiteSpace=wrap;rounded=0;fontStyle=0;labelBorderColor=default;" vertex="1" parent="1">
          <mxGeometry x="1160" y="40" width="490" height="170" as="geometry" />
        </mxCell>
        <mxCell id="P9Q4JkVkHAm-3udSk-I6-15" value="&lt;font style=&quot;font-size: 14px;&quot;&gt;Negative Integers (Z+)&lt;/font&gt;" style="triangle;whiteSpace=wrap;html=1;" vertex="1" parent="1">
          <mxGeometry x="1040" y="278" width="90" height="120" as="geometry" />
        </mxCell>
        <mxCell id="P9Q4JkVkHAm-3udSk-I6-16" style="edgeStyle=orthogonalEdgeStyle;rounded=0;orthogonalLoop=1;jettySize=auto;html=1;" edge="1" parent="1" source="P9Q4JkVkHAm-3udSk-I6-17" target="P9Q4JkVkHAm-3udSk-I6-15">
          <mxGeometry relative="1" as="geometry" />
        </mxCell>
        <mxCell id="P9Q4JkVkHAm-3udSk-I6-17" value="&lt;font style=&quot;font-size: 14px;&quot;&gt;Negative Integers (Z+)&lt;/font&gt;" style="triangle;whiteSpace=wrap;html=1;" vertex="1" parent="1">
          <mxGeometry x="880" y="278" width="90" height="120" as="geometry" />
        </mxCell>
        <mxCell id="P9Q4JkVkHAm-3udSk-I6-18" value="&lt;font style=&quot;font-size: 24px;&quot;&gt;Negative Real Numbers (R-)&lt;/font&gt;" style="text;html=1;align=center;verticalAlign=middle;whiteSpace=wrap;rounded=0;labelBorderColor=default;" vertex="1" parent="1">
          <mxGeometry x="880" y="418" width="240" height="80" as="geometry" />
        </mxCell>
        <mxCell id="P9Q4JkVkHAm-3udSk-I6-19" value="&lt;font style=&quot;font-size: 24px;&quot;&gt;Negative Integer Function (Squared)&lt;/font&gt;&lt;div&gt;&lt;font style=&quot;font-size: 24px;&quot;&gt;Negative Real Number Function (NRNF)&lt;/font&gt;&lt;/div&gt;&lt;div&gt;&lt;font style=&quot;font-size: 24px;&quot;&gt;&lt;br&gt;&lt;/font&gt;&lt;/div&gt;&lt;div&gt;&lt;font style=&quot;font-size: 24px;&quot;&gt;(k --&amp;gt; n)(args = (k --&amp;gt; n)(args = k))&lt;/font&gt;&lt;/div&gt;&lt;div&gt;&lt;font style=&quot;font-size: 24px;&quot;&gt;--&amp;gt;&amp;nbsp;&lt;/font&gt;&lt;span style=&quot;font-size: 24px; background-color: transparent; color: light-dark(rgb(0, 0, 0), rgb(255, 255, 255));&quot;&gt;(k --&amp;gt; n)(k --&amp;gt; n)(args = k)&lt;/span&gt;&lt;/div&gt;&lt;div&gt;&lt;span style=&quot;font-size: 24px; background-color: transparent; color: light-dark(rgb(0, 0, 0), rgb(255, 255, 255));&quot;&gt;--&amp;gt; (NRNF(k))(args = k)&lt;/span&gt;&lt;/div&gt;&lt;div&gt;&lt;span style=&quot;font-size: 24px; background-color: transparent; color: light-dark(rgb(0, 0, 0), rgb(255, 255, 255));&quot;&gt;k = 3&lt;br&gt;&lt;/span&gt;&lt;/div&gt;" style="text;html=1;align=center;verticalAlign=middle;whiteSpace=wrap;rounded=0;labelBorderColor=default;" vertex="1" parent="1">
          <mxGeometry x="1160" y="280" width="490" height="170" as="geometry" />
        </mxCell>
        <mxCell id="P9Q4JkVkHAm-3udSk-I6-20" value="&lt;font style=&quot;font-size: 24px;&quot;&gt;Integers (Z)&lt;/font&gt;&lt;div&gt;&lt;font style=&quot;font-size: 24px;&quot;&gt;&lt;br&gt;&lt;/font&gt;&lt;/div&gt;&lt;div&gt;&lt;span style=&quot;font-size: 24px;&quot;&gt;(1,1) --&amp;gt; 2,&lt;span style=&quot;white-space: pre;&quot;&gt;&#x9;&lt;/span&gt;&quot;1+1=2&quot;&lt;/span&gt;&lt;/div&gt;&lt;div&gt;&lt;span style=&quot;font-size: 24px;&quot;&gt;1 --&amp;gt; (1,3),&lt;span style=&quot;white-space: pre;&quot;&gt;&#x9;&lt;/span&gt;&quot;1-1=0&quot;&lt;/span&gt;&lt;/div&gt;&lt;div&gt;&lt;span style=&quot;font-size: 24px;&quot;&gt;(1,2) --&amp;gt; 4,&lt;span style=&quot;white-space: pre;&quot;&gt;&#x9;&lt;/span&gt;&quot;1+2=3&quot;&lt;/span&gt;&lt;/div&gt;&lt;div&gt;&lt;span style=&quot;font-size: 24px;&quot;&gt;3 --&amp;gt; (1,5),&lt;span style=&quot;white-space: pre;&quot;&gt;&#x9;&lt;/span&gt;&quot;0-1=-1&quot;&lt;/span&gt;&lt;/div&gt;&lt;div&gt;&lt;span style=&quot;font-size: 24px;&quot;&gt;(1,4) --&amp;gt; 6,&lt;span style=&quot;white-space: pre;&quot;&gt;&#x9;&lt;/span&gt;&quot;1+3=4&quot;&lt;/span&gt;&lt;/div&gt;&lt;div&gt;&lt;span style=&quot;font-size: 24px;&quot;&gt;5 --&amp;gt; (1,7),&lt;span style=&quot;white-space: pre;&quot;&gt;&#x9;&lt;/span&gt;&quot;-1-1=-2&quot;&lt;/span&gt;&lt;/div&gt;&lt;div&gt;&lt;span style=&quot;font-size: 24px;&quot;&gt;...&lt;span style=&quot;white-space: pre;&quot;&gt;&#x9;&lt;span style=&quot;white-space: pre;&quot;&gt;&#x9;&lt;/span&gt;&lt;span style=&quot;white-space: pre;&quot;&gt;&#x9;&lt;/span&gt;&lt;/span&gt;...&lt;/span&gt;&lt;/div&gt;&lt;div&gt;&lt;span style=&quot;background-color: transparent; color: light-dark(rgb(0, 0, 0), rgb(255, 255, 255)); font-size: 24px; white-space: pre;&quot;&gt;&#x9;&lt;/span&gt;&lt;span style=&quot;background-color: transparent; color: light-dark(rgb(0, 0, 0), rgb(255, 255, 255)); font-size: 24px; white-space: pre;&quot;&gt;&#x9;&lt;/span&gt;&lt;span style=&quot;background-color: transparent; color: light-dark(rgb(0, 0, 0), rgb(255, 255, 255)); font-size: 24px; white-space: pre;&quot;&gt;&#x9;&lt;/span&gt;&lt;/div&gt;&lt;div&gt;&lt;br&gt;&lt;/div&gt;" style="text;html=1;align=center;verticalAlign=middle;whiteSpace=wrap;rounded=0;labelBorderColor=default;" vertex="1" parent="1">
          <mxGeometry x="880" y="520" width="270" height="310" as="geometry" />
        </mxCell>
        <mxCell id="P9Q4JkVkHAm-3udSk-I6-23" value="&lt;div&gt;&lt;span style=&quot;font-size: 24px;&quot;&gt;(PIF)(args[1] = (NIF(k))(args = k),args[i&amp;gt;1] = 1)&lt;/span&gt;&lt;/div&gt;&lt;div&gt;&lt;span style=&quot;font-size: 24px;&quot;&gt;k = 1&lt;/span&gt;&lt;/div&gt;" style="text;html=1;align=center;verticalAlign=middle;whiteSpace=wrap;rounded=0;labelBorderColor=default;rotation=0;" vertex="1" parent="1">
          <mxGeometry x="820" y="844" width="640" height="120" as="geometry" />
        </mxCell>
        <mxCell id="P9Q4JkVkHAm-3udSk-I6-36" style="edgeStyle=orthogonalEdgeStyle;rounded=0;orthogonalLoop=1;jettySize=auto;html=1;entryX=0;entryY=0.25;entryDx=0;entryDy=0;" edge="1" parent="1" source="P9Q4JkVkHAm-3udSk-I6-24" target="P9Q4JkVkHAm-3udSk-I6-25">
          <mxGeometry relative="1" as="geometry" />
        </mxCell>
        <mxCell id="P9Q4JkVkHAm-3udSk-I6-24" value="-2" style="triangle;whiteSpace=wrap;html=1;" vertex="1" parent="1">
          <mxGeometry x="1200" y="520" width="30" height="40" as="geometry" />
        </mxCell>
        <mxCell id="P9Q4JkVkHAm-3udSk-I6-38" style="edgeStyle=orthogonalEdgeStyle;rounded=0;orthogonalLoop=1;jettySize=auto;html=1;entryX=0;entryY=0.25;entryDx=0;entryDy=0;" edge="1" parent="1" source="P9Q4JkVkHAm-3udSk-I6-25" target="P9Q4JkVkHAm-3udSk-I6-29">
          <mxGeometry relative="1" as="geometry" />
        </mxCell>
        <mxCell id="P9Q4JkVkHAm-3udSk-I6-25" value="-1" style="triangle;whiteSpace=wrap;html=1;" vertex="1" parent="1">
          <mxGeometry x="1279" y="560" width="30" height="40" as="geometry" />
        </mxCell>
        <mxCell id="P9Q4JkVkHAm-3udSk-I6-47" style="edgeStyle=orthogonalEdgeStyle;rounded=0;orthogonalLoop=1;jettySize=auto;html=1;entryX=0;entryY=0.25;entryDx=0;entryDy=0;" edge="1" parent="1" source="P9Q4JkVkHAm-3udSk-I6-26" target="P9Q4JkVkHAm-3udSk-I6-31">
          <mxGeometry relative="1" as="geometry" />
        </mxCell>
        <mxCell id="P9Q4JkVkHAm-3udSk-I6-26" value="1" style="triangle;whiteSpace=wrap;html=1;" vertex="1" parent="1">
          <mxGeometry x="1440" y="639" width="30" height="40" as="geometry" />
        </mxCell>
        <mxCell id="P9Q4JkVkHAm-3udSk-I6-42" style="edgeStyle=orthogonalEdgeStyle;rounded=0;orthogonalLoop=1;jettySize=auto;html=1;entryX=0;entryY=0.25;entryDx=0;entryDy=0;" edge="1" parent="1" source="P9Q4JkVkHAm-3udSk-I6-29" target="P9Q4JkVkHAm-3udSk-I6-26">
          <mxGeometry relative="1" as="geometry" />
        </mxCell>
        <mxCell id="P9Q4JkVkHAm-3udSk-I6-29" value="0" style="triangle;whiteSpace=wrap;html=1;" vertex="1" parent="1">
          <mxGeometry x="1359" y="599" width="30" height="40" as="geometry" />
        </mxCell>
        <mxCell id="P9Q4JkVkHAm-3udSk-I6-48" style="edgeStyle=orthogonalEdgeStyle;rounded=0;orthogonalLoop=1;jettySize=auto;html=1;entryX=0;entryY=0.25;entryDx=0;entryDy=0;" edge="1" parent="1" source="P9Q4JkVkHAm-3udSk-I6-31" target="P9Q4JkVkHAm-3udSk-I6-32">
          <mxGeometry relative="1" as="geometry" />
        </mxCell>
        <mxCell id="P9Q4JkVkHAm-3udSk-I6-31" value="2" style="triangle;whiteSpace=wrap;html=1;" vertex="1" parent="1">
          <mxGeometry x="1519" y="679" width="30" height="40" as="geometry" />
        </mxCell>
        <mxCell id="P9Q4JkVkHAm-3udSk-I6-55" style="edgeStyle=orthogonalEdgeStyle;rounded=0;orthogonalLoop=1;jettySize=auto;html=1;entryX=0;entryY=0.25;entryDx=0;entryDy=0;" edge="1" parent="1" source="P9Q4JkVkHAm-3udSk-I6-32" target="P9Q4JkVkHAm-3udSk-I6-53">
          <mxGeometry relative="1" as="geometry" />
        </mxCell>
        <mxCell id="P9Q4JkVkHAm-3udSk-I6-32" value="3" style="triangle;whiteSpace=wrap;html=1;" vertex="1" parent="1">
          <mxGeometry x="1600" y="719" width="30" height="40" as="geometry" />
        </mxCell>
        <mxCell id="P9Q4JkVkHAm-3udSk-I6-35" style="edgeStyle=orthogonalEdgeStyle;rounded=0;orthogonalLoop=1;jettySize=auto;html=1;entryX=0;entryY=0.75;entryDx=0;entryDy=0;" edge="1" parent="1" source="P9Q4JkVkHAm-3udSk-I6-33" target="P9Q4JkVkHAm-3udSk-I6-25">
          <mxGeometry relative="1" as="geometry" />
        </mxCell>
        <mxCell id="P9Q4JkVkHAm-3udSk-I6-33" value="1" style="triangle;whiteSpace=wrap;html=1;" vertex="1" parent="1">
          <mxGeometry x="1200" y="600" width="30" height="40" as="geometry" />
        </mxCell>
        <mxCell id="P9Q4JkVkHAm-3udSk-I6-39" style="edgeStyle=orthogonalEdgeStyle;rounded=0;orthogonalLoop=1;jettySize=auto;html=1;entryX=0;entryY=0.75;entryDx=0;entryDy=0;" edge="1" parent="1" source="P9Q4JkVkHAm-3udSk-I6-34" target="P9Q4JkVkHAm-3udSk-I6-29">
          <mxGeometry relative="1" as="geometry" />
        </mxCell>
        <mxCell id="P9Q4JkVkHAm-3udSk-I6-34" value="1" style="triangle;whiteSpace=wrap;html=1;" vertex="1" parent="1">
          <mxGeometry x="1200" y="680" width="30" height="40" as="geometry" />
        </mxCell>
        <mxCell id="P9Q4JkVkHAm-3udSk-I6-41" style="edgeStyle=orthogonalEdgeStyle;rounded=0;orthogonalLoop=1;jettySize=auto;html=1;entryX=0;entryY=0.75;entryDx=0;entryDy=0;" edge="1" parent="1" source="P9Q4JkVkHAm-3udSk-I6-40" target="P9Q4JkVkHAm-3udSk-I6-26">
          <mxGeometry relative="1" as="geometry" />
        </mxCell>
        <mxCell id="P9Q4JkVkHAm-3udSk-I6-40" value="1" style="triangle;whiteSpace=wrap;html=1;" vertex="1" parent="1">
          <mxGeometry x="1200" y="760" width="30" height="40" as="geometry" />
        </mxCell>
        <mxCell id="P9Q4JkVkHAm-3udSk-I6-46" style="edgeStyle=orthogonalEdgeStyle;rounded=0;orthogonalLoop=1;jettySize=auto;html=1;entryX=0;entryY=0.75;entryDx=0;entryDy=0;" edge="1" parent="1" source="P9Q4JkVkHAm-3udSk-I6-43" target="P9Q4JkVkHAm-3udSk-I6-31">
          <mxGeometry relative="1" as="geometry" />
        </mxCell>
        <mxCell id="P9Q4JkVkHAm-3udSk-I6-43" value="1" style="triangle;whiteSpace=wrap;html=1;" vertex="1" parent="1">
          <mxGeometry x="1440" y="719" width="30" height="40" as="geometry" />
        </mxCell>
        <mxCell id="P9Q4JkVkHAm-3udSk-I6-49" style="edgeStyle=orthogonalEdgeStyle;rounded=0;orthogonalLoop=1;jettySize=auto;html=1;entryX=0;entryY=0.75;entryDx=0;entryDy=0;" edge="1" parent="1" source="P9Q4JkVkHAm-3udSk-I6-45" target="P9Q4JkVkHAm-3udSk-I6-32">
          <mxGeometry relative="1" as="geometry" />
        </mxCell>
        <mxCell id="P9Q4JkVkHAm-3udSk-I6-45" value="1" style="triangle;whiteSpace=wrap;html=1;" vertex="1" parent="1">
          <mxGeometry x="1440" y="800" width="30" height="40" as="geometry" />
        </mxCell>
        <mxCell id="P9Q4JkVkHAm-3udSk-I6-56" style="edgeStyle=orthogonalEdgeStyle;rounded=0;orthogonalLoop=1;jettySize=auto;html=1;entryX=0;entryY=0.75;entryDx=0;entryDy=0;" edge="1" parent="1" source="P9Q4JkVkHAm-3udSk-I6-51" target="P9Q4JkVkHAm-3udSk-I6-53">
          <mxGeometry relative="1" as="geometry" />
        </mxCell>
        <mxCell id="P9Q4JkVkHAm-3udSk-I6-51" value="1" style="triangle;whiteSpace=wrap;html=1;" vertex="1" parent="1">
          <mxGeometry x="1439" y="880" width="30" height="40" as="geometry" />
        </mxCell>
        <mxCell id="P9Q4JkVkHAm-3udSk-I6-53" value="4" style="triangle;whiteSpace=wrap;html=1;" vertex="1" parent="1">
          <mxGeometry x="1664" y="758" width="30" height="40" as="geometry" />
        </mxCell>
        <mxCell id="P9Q4JkVkHAm-3udSk-I6-57" value="&lt;font style=&quot;font-size: 36px;&quot;&gt;...&lt;/font&gt;" style="text;html=1;align=center;verticalAlign=middle;whiteSpace=wrap;rounded=0;rotation=90;" vertex="1" parent="1">
          <mxGeometry x="1361" y="533" width="60" height="30" as="geometry" />
        </mxCell>
        <mxCell id="P9Q4JkVkHAm-3udSk-I6-58" value="&lt;font style=&quot;font-size: 36px;&quot;&gt;...&lt;/font&gt;" style="text;html=1;align=center;verticalAlign=middle;whiteSpace=wrap;rounded=0;rotation=90;" vertex="1" parent="1">
          <mxGeometry x="1595" y="872" width="60" height="30" as="geometry" />
        </mxCell>
        <mxCell id="P9Q4JkVkHAm-3udSk-I6-62" style="edgeStyle=orthogonalEdgeStyle;rounded=0;orthogonalLoop=1;jettySize=auto;html=1;entryX=0;entryY=0.25;entryDx=0;entryDy=0;" edge="1" parent="1" source="P9Q4JkVkHAm-3udSk-I6-63" target="P9Q4JkVkHAm-3udSk-I6-65">
          <mxGeometry relative="1" as="geometry" />
        </mxCell>
        <mxCell id="P9Q4JkVkHAm-3udSk-I6-63" value="&lt;font style=&quot;font-size: 14px;&quot;&gt;-2(Z+)&lt;/font&gt;" style="triangle;whiteSpace=wrap;html=1;" vertex="1" parent="1">
          <mxGeometry x="880" y="1117" width="30" height="40" as="geometry" />
        </mxCell>
        <mxCell id="P9Q4JkVkHAm-3udSk-I6-64" style="edgeStyle=orthogonalEdgeStyle;rounded=0;orthogonalLoop=1;jettySize=auto;html=1;entryX=0;entryY=0.25;entryDx=0;entryDy=0;" edge="1" parent="1" source="P9Q4JkVkHAm-3udSk-I6-65" target="P9Q4JkVkHAm-3udSk-I6-69">
          <mxGeometry relative="1" as="geometry" />
        </mxCell>
        <mxCell id="P9Q4JkVkHAm-3udSk-I6-65" value="&lt;font style=&quot;font-size: 14px;&quot;&gt;-1(Z+)&lt;/font&gt;" style="triangle;whiteSpace=wrap;html=1;" vertex="1" parent="1">
          <mxGeometry x="959" y="1157" width="30" height="40" as="geometry" />
        </mxCell>
        <mxCell id="P9Q4JkVkHAm-3udSk-I6-66" style="edgeStyle=orthogonalEdgeStyle;rounded=0;orthogonalLoop=1;jettySize=auto;html=1;entryX=0;entryY=0.25;entryDx=0;entryDy=0;" edge="1" parent="1" source="P9Q4JkVkHAm-3udSk-I6-67" target="P9Q4JkVkHAm-3udSk-I6-71">
          <mxGeometry relative="1" as="geometry" />
        </mxCell>
        <mxCell id="P9Q4JkVkHAm-3udSk-I6-67" value="&lt;div&gt;&lt;font style=&quot;font-size: 14px;&quot;&gt;1(Z+)&lt;/font&gt;&lt;/div&gt;" style="triangle;whiteSpace=wrap;html=1;" vertex="1" parent="1">
          <mxGeometry x="1120" y="1236" width="30" height="40" as="geometry" />
        </mxCell>
        <mxCell id="P9Q4JkVkHAm-3udSk-I6-68" style="edgeStyle=orthogonalEdgeStyle;rounded=0;orthogonalLoop=1;jettySize=auto;html=1;entryX=0;entryY=0.25;entryDx=0;entryDy=0;" edge="1" parent="1" source="P9Q4JkVkHAm-3udSk-I6-69" target="P9Q4JkVkHAm-3udSk-I6-67">
          <mxGeometry relative="1" as="geometry" />
        </mxCell>
        <mxCell id="P9Q4JkVkHAm-3udSk-I6-69" value="0" style="triangle;whiteSpace=wrap;html=1;" vertex="1" parent="1">
          <mxGeometry x="1039" y="1196" width="30" height="40" as="geometry" />
        </mxCell>
        <mxCell id="P9Q4JkVkHAm-3udSk-I6-70" style="edgeStyle=orthogonalEdgeStyle;rounded=0;orthogonalLoop=1;jettySize=auto;html=1;entryX=0;entryY=0.25;entryDx=0;entryDy=0;" edge="1" parent="1" source="P9Q4JkVkHAm-3udSk-I6-71" target="P9Q4JkVkHAm-3udSk-I6-73">
          <mxGeometry relative="1" as="geometry" />
        </mxCell>
        <mxCell id="P9Q4JkVkHAm-3udSk-I6-71" value="&lt;font style=&quot;font-size: 14px;&quot;&gt;2(Z+)&lt;/font&gt;" style="triangle;whiteSpace=wrap;html=1;" vertex="1" parent="1">
          <mxGeometry x="1199" y="1276" width="30" height="40" as="geometry" />
        </mxCell>
        <mxCell id="P9Q4JkVkHAm-3udSk-I6-72" style="edgeStyle=orthogonalEdgeStyle;rounded=0;orthogonalLoop=1;jettySize=auto;html=1;entryX=0;entryY=0.25;entryDx=0;entryDy=0;" edge="1" parent="1" source="P9Q4JkVkHAm-3udSk-I6-73" target="P9Q4JkVkHAm-3udSk-I6-86">
          <mxGeometry relative="1" as="geometry" />
        </mxCell>
        <mxCell id="P9Q4JkVkHAm-3udSk-I6-73" value="&lt;font style=&quot;font-size: 14px;&quot;&gt;3(Z+)&lt;/font&gt;" style="triangle;whiteSpace=wrap;html=1;" vertex="1" parent="1">
          <mxGeometry x="1280" y="1316" width="30" height="40" as="geometry" />
        </mxCell>
        <mxCell id="P9Q4JkVkHAm-3udSk-I6-74" style="edgeStyle=orthogonalEdgeStyle;rounded=0;orthogonalLoop=1;jettySize=auto;html=1;entryX=0;entryY=0.75;entryDx=0;entryDy=0;" edge="1" parent="1" source="P9Q4JkVkHAm-3udSk-I6-75" target="P9Q4JkVkHAm-3udSk-I6-65">
          <mxGeometry relative="1" as="geometry" />
        </mxCell>
        <mxCell id="P9Q4JkVkHAm-3udSk-I6-75" value="(Z+)" style="triangle;whiteSpace=wrap;html=1;" vertex="1" parent="1">
          <mxGeometry x="880" y="1197" width="30" height="40" as="geometry" />
        </mxCell>
        <mxCell id="P9Q4JkVkHAm-3udSk-I6-76" style="edgeStyle=orthogonalEdgeStyle;rounded=0;orthogonalLoop=1;jettySize=auto;html=1;entryX=0;entryY=0.75;entryDx=0;entryDy=0;" edge="1" parent="1" source="P9Q4JkVkHAm-3udSk-I6-77" target="P9Q4JkVkHAm-3udSk-I6-69">
          <mxGeometry relative="1" as="geometry" />
        </mxCell>
        <mxCell id="P9Q4JkVkHAm-3udSk-I6-77" value="(Z+)" style="triangle;whiteSpace=wrap;html=1;" vertex="1" parent="1">
          <mxGeometry x="880" y="1277" width="30" height="40" as="geometry" />
        </mxCell>
        <mxCell id="P9Q4JkVkHAm-3udSk-I6-78" style="edgeStyle=orthogonalEdgeStyle;rounded=0;orthogonalLoop=1;jettySize=auto;html=1;entryX=0;entryY=0.75;entryDx=0;entryDy=0;" edge="1" parent="1" source="P9Q4JkVkHAm-3udSk-I6-79" target="P9Q4JkVkHAm-3udSk-I6-67">
          <mxGeometry relative="1" as="geometry" />
        </mxCell>
        <mxCell id="P9Q4JkVkHAm-3udSk-I6-79" value="(Z+)" style="triangle;whiteSpace=wrap;html=1;" vertex="1" parent="1">
          <mxGeometry x="880" y="1357" width="30" height="40" as="geometry" />
        </mxCell>
        <mxCell id="P9Q4JkVkHAm-3udSk-I6-80" style="edgeStyle=orthogonalEdgeStyle;rounded=0;orthogonalLoop=1;jettySize=auto;html=1;entryX=0;entryY=0.75;entryDx=0;entryDy=0;" edge="1" parent="1" source="P9Q4JkVkHAm-3udSk-I6-81" target="P9Q4JkVkHAm-3udSk-I6-71">
          <mxGeometry relative="1" as="geometry" />
        </mxCell>
        <mxCell id="P9Q4JkVkHAm-3udSk-I6-81" value="(Z+)" style="triangle;whiteSpace=wrap;html=1;" vertex="1" parent="1">
          <mxGeometry x="1120" y="1316" width="30" height="40" as="geometry" />
        </mxCell>
        <mxCell id="P9Q4JkVkHAm-3udSk-I6-82" style="edgeStyle=orthogonalEdgeStyle;rounded=0;orthogonalLoop=1;jettySize=auto;html=1;entryX=0;entryY=0.75;entryDx=0;entryDy=0;" edge="1" parent="1" source="P9Q4JkVkHAm-3udSk-I6-83" target="P9Q4JkVkHAm-3udSk-I6-73">
          <mxGeometry relative="1" as="geometry" />
        </mxCell>
        <mxCell id="P9Q4JkVkHAm-3udSk-I6-83" value="(Z+)" style="triangle;whiteSpace=wrap;html=1;" vertex="1" parent="1">
          <mxGeometry x="1120" y="1397" width="30" height="40" as="geometry" />
        </mxCell>
        <mxCell id="P9Q4JkVkHAm-3udSk-I6-84" style="edgeStyle=orthogonalEdgeStyle;rounded=0;orthogonalLoop=1;jettySize=auto;html=1;entryX=0;entryY=0.75;entryDx=0;entryDy=0;" edge="1" parent="1" source="P9Q4JkVkHAm-3udSk-I6-85" target="P9Q4JkVkHAm-3udSk-I6-86">
          <mxGeometry relative="1" as="geometry" />
        </mxCell>
        <mxCell id="P9Q4JkVkHAm-3udSk-I6-85" value="(Z+)" style="triangle;whiteSpace=wrap;html=1;" vertex="1" parent="1">
          <mxGeometry x="1119" y="1477" width="30" height="40" as="geometry" />
        </mxCell>
        <mxCell id="P9Q4JkVkHAm-3udSk-I6-86" value="&lt;font style=&quot;font-size: 14px;&quot;&gt;4(Z+)&lt;/font&gt;" style="triangle;whiteSpace=wrap;html=1;" vertex="1" parent="1">
          <mxGeometry x="1344" y="1355" width="30" height="40" as="geometry" />
        </mxCell>
        <mxCell id="P9Q4JkVkHAm-3udSk-I6-87" value="&lt;font style=&quot;font-size: 36px;&quot;&gt;...&lt;/font&gt;" style="text;html=1;align=center;verticalAlign=middle;whiteSpace=wrap;rounded=0;rotation=90;" vertex="1" parent="1">
          <mxGeometry x="1041" y="1130" width="60" height="30" as="geometry" />
        </mxCell>
        <mxCell id="P9Q4JkVkHAm-3udSk-I6-88" value="&lt;font style=&quot;font-size: 36px;&quot;&gt;...&lt;/font&gt;" style="text;html=1;align=center;verticalAlign=middle;whiteSpace=wrap;rounded=0;rotation=90;" vertex="1" parent="1">
          <mxGeometry x="1275" y="1469" width="60" height="30" as="geometry" />
        </mxCell>
        <mxCell id="P9Q4JkVkHAm-3udSk-I6-89" value="&lt;span style=&quot;font-size: 24px;&quot;&gt;Real Numbers&lt;/span&gt;&lt;div&gt;&lt;span style=&quot;font-size: 24px;&quot;&gt;&lt;br&gt;&lt;/span&gt;&lt;div&gt;&lt;span style=&quot;font-size: 24px;&quot;&gt;(PIF)(args[1] = (NIF(k))(args = (NIF(k))(args = k)),args[i&amp;gt;1] = (PIF)(args = (NIF(k))(args = k))&lt;/span&gt;&lt;/div&gt;&lt;/div&gt;&lt;div&gt;&lt;span style=&quot;font-size: 24px;&quot;&gt;--&amp;gt; (PRNF)(args[1] = (NRNF(k))(args = k),args[i&amp;gt;1] = 1)&lt;/span&gt;&lt;/div&gt;&lt;div&gt;&lt;span style=&quot;font-size: 24px;&quot;&gt;k = 1&lt;/span&gt;&lt;/div&gt;" style="text;html=1;align=center;verticalAlign=middle;whiteSpace=wrap;rounded=0;labelBorderColor=default;" vertex="1" parent="1">
          <mxGeometry x="864" y="1605" width="830" height="80" as="geometry" />
        </mxCell>
        <mxCell id="P9Q4JkVkHAm-3udSk-I6-109" value="&lt;font style=&quot;font-size: 24px;&quot;&gt;Real Numbers (R)&lt;/font&gt;" style="text;html=1;align=center;verticalAlign=middle;whiteSpace=wrap;rounded=0;labelBorderColor=default;" vertex="1" parent="1">
          <mxGeometry x="1439" y="1130" width="210" height="90" as="geometry" />
        </mxCell>
        <mxCell id="P9Q4JkVkHAm-3udSk-I6-110" value="&lt;font style=&quot;font-size: 24px;&quot;&gt;Addition of Positive Integers&lt;/font&gt;&lt;div&gt;&lt;span style=&quot;font-size: 24px;&quot;&gt;(a) and (b) are positive integers (addition of a+b)&lt;/span&gt;&lt;/div&gt;&lt;div&gt;&lt;span style=&quot;font-size: 24px;&quot;&gt;&lt;br&gt;&lt;/span&gt;&lt;/div&gt;&lt;div&gt;&lt;span style=&quot;font-size: 24px;&quot;&gt;(1 --&amp;gt; a)(args = 1) --&amp;gt; a&lt;/span&gt;&lt;/div&gt;&lt;div&gt;&lt;span style=&quot;font-size: 24px;&quot;&gt;(1 --&amp;gt; b)(args = 1) --&amp;gt; b&lt;/span&gt;&lt;/div&gt;&lt;div&gt;&lt;span style=&quot;font-size: 24px;&quot;&gt;(1 --&amp;gt; a)(args[1] = (1 --&amp;gt; b)(args = 1), args[i&amp;gt;1] = 1)&lt;/span&gt;&lt;/div&gt;&lt;div&gt;&lt;font style=&quot;font-size: 24px;&quot;&gt;--&amp;gt;&amp;nbsp;&lt;/font&gt;&lt;span style=&quot;font-size: 24px; background-color: transparent; color: light-dark(rgb(0, 0, 0), rgb(255, 255, 255));&quot;&gt;(1 --&amp;gt; b)(args[1] = (1 --&amp;gt; a)(args = 1), args[i&amp;gt;1] = 1&lt;/span&gt;&lt;/div&gt;&lt;div&gt;&lt;span style=&quot;font-size: 24px; background-color: transparent; color: light-dark(rgb(0, 0, 0), rgb(255, 255, 255));&quot;&gt;--&amp;gt; (1 --&amp;gt; (a+b))(args = 1) --&amp;gt; (a+b)&lt;/span&gt;&lt;/div&gt;&lt;div&gt;&lt;font style=&quot;font-size: 24px;&quot;&gt;&lt;br&gt;&lt;/font&gt;&lt;/div&gt;" style="text;html=1;align=center;verticalAlign=middle;whiteSpace=wrap;rounded=0;labelBorderColor=default;" vertex="1" parent="1">
          <mxGeometry x="-57.5" y="1130" width="750" height="240" as="geometry" />
        </mxCell>
        <mxCell id="P9Q4JkVkHAm-3udSk-I6-126" style="edgeStyle=orthogonalEdgeStyle;rounded=0;orthogonalLoop=1;jettySize=auto;html=1;entryX=0;entryY=0.5;entryDx=0;entryDy=0;" edge="1" parent="1" source="P9Q4JkVkHAm-3udSk-I6-116" target="P9Q4JkVkHAm-3udSk-I6-123">
          <mxGeometry relative="1" as="geometry" />
        </mxCell>
        <mxCell id="P9Q4JkVkHAm-3udSk-I6-116" value="&lt;font style=&quot;font-size: 36px;&quot;&gt;a&lt;/font&gt;" style="triangle;whiteSpace=wrap;html=1;" vertex="1" parent="1">
          <mxGeometry x="159" y="1480" width="60" height="80" as="geometry" />
        </mxCell>
        <mxCell id="P9Q4JkVkHAm-3udSk-I6-118" style="edgeStyle=orthogonalEdgeStyle;rounded=0;orthogonalLoop=1;jettySize=auto;html=1;entryX=0;entryY=0.25;entryDx=0;entryDy=0;" edge="1" parent="1" source="P9Q4JkVkHAm-3udSk-I6-117" target="P9Q4JkVkHAm-3udSk-I6-116">
          <mxGeometry relative="1" as="geometry" />
        </mxCell>
        <mxCell id="P9Q4JkVkHAm-3udSk-I6-117" value="&lt;font style=&quot;font-size: 24px;&quot;&gt;1&lt;/font&gt;" style="ellipse;whiteSpace=wrap;html=1;aspect=fixed;" vertex="1" parent="1">
          <mxGeometry x="38" y="1440" width="43" height="43" as="geometry" />
        </mxCell>
        <mxCell id="P9Q4JkVkHAm-3udSk-I6-120" style="edgeStyle=orthogonalEdgeStyle;rounded=0;orthogonalLoop=1;jettySize=auto;html=1;entryX=0;entryY=0.75;entryDx=0;entryDy=0;" edge="1" parent="1" source="P9Q4JkVkHAm-3udSk-I6-119" target="P9Q4JkVkHAm-3udSk-I6-116">
          <mxGeometry relative="1" as="geometry" />
        </mxCell>
        <mxCell id="P9Q4JkVkHAm-3udSk-I6-119" value="&lt;font style=&quot;font-size: 24px;&quot;&gt;i&amp;gt;1&lt;/font&gt;" style="rounded=1;whiteSpace=wrap;html=1;" vertex="1" parent="1">
          <mxGeometry x="39" y="1553" width="70" height="50" as="geometry" />
        </mxCell>
        <mxCell id="P9Q4JkVkHAm-3udSk-I6-121" value="&lt;font style=&quot;font-size: 36px;&quot;&gt;b&lt;/font&gt;" style="triangle;whiteSpace=wrap;html=1;" vertex="1" parent="1">
          <mxGeometry x="399" y="1478" width="60" height="80" as="geometry" />
        </mxCell>
        <mxCell id="P9Q4JkVkHAm-3udSk-I6-122" style="edgeStyle=orthogonalEdgeStyle;rounded=0;orthogonalLoop=1;jettySize=auto;html=1;entryX=0;entryY=0.25;entryDx=0;entryDy=0;" edge="1" parent="1" source="P9Q4JkVkHAm-3udSk-I6-123" target="P9Q4JkVkHAm-3udSk-I6-121">
          <mxGeometry relative="1" as="geometry" />
        </mxCell>
        <mxCell id="P9Q4JkVkHAm-3udSk-I6-123" value="&lt;font style=&quot;font-size: 24px;&quot;&gt;1&lt;/font&gt;" style="ellipse;whiteSpace=wrap;html=1;aspect=fixed;" vertex="1" parent="1">
          <mxGeometry x="278" y="1438" width="43" height="43" as="geometry" />
        </mxCell>
        <mxCell id="P9Q4JkVkHAm-3udSk-I6-124" style="edgeStyle=orthogonalEdgeStyle;rounded=0;orthogonalLoop=1;jettySize=auto;html=1;entryX=0;entryY=0.75;entryDx=0;entryDy=0;" edge="1" parent="1" source="P9Q4JkVkHAm-3udSk-I6-125" target="P9Q4JkVkHAm-3udSk-I6-121">
          <mxGeometry relative="1" as="geometry" />
        </mxCell>
        <mxCell id="P9Q4JkVkHAm-3udSk-I6-125" value="&lt;font style=&quot;font-size: 24px;&quot;&gt;i&amp;gt;1&lt;/font&gt;" style="rounded=1;whiteSpace=wrap;html=1;" vertex="1" parent="1">
          <mxGeometry x="279" y="1551" width="70" height="50" as="geometry" />
        </mxCell>
        <mxCell id="P9Q4JkVkHAm-3udSk-I6-127" style="edgeStyle=orthogonalEdgeStyle;rounded=0;orthogonalLoop=1;jettySize=auto;html=1;entryX=0;entryY=0.5;entryDx=0;entryDy=0;" edge="1" parent="1" source="P9Q4JkVkHAm-3udSk-I6-128" target="P9Q4JkVkHAm-3udSk-I6-135">
          <mxGeometry relative="1" as="geometry" />
        </mxCell>
        <mxCell id="P9Q4JkVkHAm-3udSk-I6-128" value="&lt;font style=&quot;font-size: 36px;&quot;&gt;b&lt;/font&gt;" style="triangle;whiteSpace=wrap;html=1;" vertex="1" parent="1">
          <mxGeometry x="159" y="1682" width="60" height="80" as="geometry" />
        </mxCell>
        <mxCell id="P9Q4JkVkHAm-3udSk-I6-129" style="edgeStyle=orthogonalEdgeStyle;rounded=0;orthogonalLoop=1;jettySize=auto;html=1;entryX=0;entryY=0.25;entryDx=0;entryDy=0;" edge="1" parent="1" source="P9Q4JkVkHAm-3udSk-I6-130" target="P9Q4JkVkHAm-3udSk-I6-128">
          <mxGeometry relative="1" as="geometry" />
        </mxCell>
        <mxCell id="P9Q4JkVkHAm-3udSk-I6-130" value="&lt;font style=&quot;font-size: 24px;&quot;&gt;1&lt;/font&gt;" style="ellipse;whiteSpace=wrap;html=1;aspect=fixed;" vertex="1" parent="1">
          <mxGeometry x="38" y="1642" width="43" height="43" as="geometry" />
        </mxCell>
        <mxCell id="P9Q4JkVkHAm-3udSk-I6-131" style="edgeStyle=orthogonalEdgeStyle;rounded=0;orthogonalLoop=1;jettySize=auto;html=1;entryX=0;entryY=0.75;entryDx=0;entryDy=0;" edge="1" parent="1" source="P9Q4JkVkHAm-3udSk-I6-132" target="P9Q4JkVkHAm-3udSk-I6-128">
          <mxGeometry relative="1" as="geometry" />
        </mxCell>
        <mxCell id="P9Q4JkVkHAm-3udSk-I6-132" value="&lt;font style=&quot;font-size: 24px;&quot;&gt;i&amp;gt;1&lt;/font&gt;" style="rounded=1;whiteSpace=wrap;html=1;" vertex="1" parent="1">
          <mxGeometry x="39" y="1755" width="70" height="50" as="geometry" />
        </mxCell>
        <mxCell id="P9Q4JkVkHAm-3udSk-I6-133" value="&lt;font style=&quot;font-size: 36px;&quot;&gt;a&lt;/font&gt;" style="triangle;whiteSpace=wrap;html=1;" vertex="1" parent="1">
          <mxGeometry x="399" y="1680" width="60" height="80" as="geometry" />
        </mxCell>
        <mxCell id="P9Q4JkVkHAm-3udSk-I6-134" style="edgeStyle=orthogonalEdgeStyle;rounded=0;orthogonalLoop=1;jettySize=auto;html=1;entryX=0;entryY=0.25;entryDx=0;entryDy=0;" edge="1" parent="1" source="P9Q4JkVkHAm-3udSk-I6-135" target="P9Q4JkVkHAm-3udSk-I6-133">
          <mxGeometry relative="1" as="geometry" />
        </mxCell>
        <mxCell id="P9Q4JkVkHAm-3udSk-I6-135" value="&lt;font style=&quot;font-size: 24px;&quot;&gt;1&lt;/font&gt;" style="ellipse;whiteSpace=wrap;html=1;aspect=fixed;" vertex="1" parent="1">
          <mxGeometry x="278" y="1640" width="43" height="43" as="geometry" />
        </mxCell>
        <mxCell id="P9Q4JkVkHAm-3udSk-I6-136" style="edgeStyle=orthogonalEdgeStyle;rounded=0;orthogonalLoop=1;jettySize=auto;html=1;entryX=0;entryY=0.75;entryDx=0;entryDy=0;" edge="1" parent="1" source="P9Q4JkVkHAm-3udSk-I6-137" target="P9Q4JkVkHAm-3udSk-I6-133">
          <mxGeometry relative="1" as="geometry" />
        </mxCell>
        <mxCell id="P9Q4JkVkHAm-3udSk-I6-137" value="&lt;font style=&quot;font-size: 24px;&quot;&gt;i&amp;gt;1&lt;/font&gt;" style="rounded=1;whiteSpace=wrap;html=1;" vertex="1" parent="1">
          <mxGeometry x="279" y="1753" width="70" height="50" as="geometry" />
        </mxCell>
      </root>
    </mxGraphModel>
  </diagram>
</mxfile>
